<mxfile host="65bd71144e">
    <diagram id="5gMrNbhCcvMap2-kCo8e" name="Page-1">
        <mxGraphModel dx="1007" dy="622" grid="1" gridSize="10" guides="1" tooltips="1" connect="1" arrows="1" fold="1" page="1" pageScale="1" pageWidth="827" pageHeight="1169" math="0" shadow="0">
            <root>
                <mxCell id="0"/>
                <mxCell id="1" parent="0"/>
                <mxCell id="27" style="edgeStyle=none;html=1;entryX=0.5;entryY=0;entryDx=0;entryDy=0;" parent="1" source="2" edge="1">
                    <mxGeometry relative="1" as="geometry">
                        <mxPoint x="270" y="190" as="targetPoint"/>
                    </mxGeometry>
                </mxCell>
                <mxCell id="2" value="Start" style="strokeWidth=2;html=1;shape=mxgraph.flowchart.start_1;whiteSpace=wrap;" parent="1" vertex="1">
                    <mxGeometry x="220" y="90" width="100" height="60" as="geometry"/>
                </mxCell>
                <mxCell id="3" value="Stop" style="strokeWidth=2;html=1;shape=mxgraph.flowchart.start_1;whiteSpace=wrap;" parent="1" vertex="1">
                    <mxGeometry x="790" y="165" width="100" height="60" as="geometry"/>
                </mxCell>
                <mxCell id="16" style="edgeStyle=none;html=1;entryX=0.5;entryY=1;entryDx=0;entryDy=0;entryPerimeter=0;" parent="1" source="15" target="3" edge="1">
                    <mxGeometry relative="1" as="geometry"/>
                </mxCell>
                <mxCell id="15" value="return z0&lt;br&gt;* std + mean" style="shape=parallelogram;html=1;strokeWidth=2;perimeter=parallelogramPerimeter;whiteSpace=wrap;rounded=1;arcSize=12;size=0.23;" parent="1" vertex="1">
                    <mxGeometry x="790" y="265" width="100" height="60" as="geometry"/>
                </mxCell>
                <mxCell id="33" style="edgeStyle=none;html=1;entryX=0.5;entryY=0;entryDx=0;entryDy=0;fontSize=12;" parent="1" edge="1">
                    <mxGeometry relative="1" as="geometry">
                        <mxPoint x="270" y="250" as="sourcePoint"/>
                        <mxPoint x="270" y="290" as="targetPoint"/>
                    </mxGeometry>
                </mxCell>
                <mxCell id="55" value="Set mean" style="shape=parallelogram;html=1;strokeWidth=2;perimeter=parallelogramPerimeter;whiteSpace=wrap;rounded=1;arcSize=12;size=0.23;" parent="1" vertex="1">
                    <mxGeometry x="220" y="190" width="100" height="60" as="geometry"/>
                </mxCell>
                <mxCell id="67" style="edgeStyle=elbowEdgeStyle;html=1;entryX=0;entryY=0.5;entryDx=0;entryDy=0;elbow=vertical;rounded=0;" edge="1" parent="1" source="56" target="62">
                    <mxGeometry relative="1" as="geometry">
                        <Array as="points">
                            <mxPoint x="260" y="375"/>
                        </Array>
                    </mxGeometry>
                </mxCell>
                <mxCell id="56" value="Set std" style="shape=parallelogram;html=1;strokeWidth=2;perimeter=parallelogramPerimeter;whiteSpace=wrap;rounded=1;arcSize=12;size=0.23;" parent="1" vertex="1">
                    <mxGeometry x="220" y="290" width="100" height="60" as="geometry"/>
                </mxCell>
                <mxCell id="69" style="edgeStyle=none;rounded=0;html=1;entryX=0.421;entryY=1.014;entryDx=0;entryDy=0;entryPerimeter=0;elbow=vertical;" edge="1" parent="1" source="62" target="63">
                    <mxGeometry relative="1" as="geometry"/>
                </mxCell>
                <mxCell id="62" value="var _2PI = &lt;br&gt;Math.PI * 2" style="shape=parallelogram;html=1;strokeWidth=2;perimeter=parallelogramPerimeter;whiteSpace=wrap;rounded=1;arcSize=12;size=0.23;" vertex="1" parent="1">
                    <mxGeometry x="360" y="345" width="126" height="60" as="geometry"/>
                </mxCell>
                <mxCell id="71" style="edgeStyle=none;rounded=0;html=1;entryX=0.413;entryY=1.029;entryDx=0;entryDy=0;entryPerimeter=0;elbow=vertical;" edge="1" parent="1" source="63" target="64">
                    <mxGeometry relative="1" as="geometry"/>
                </mxCell>
                <mxCell id="63" value="&lt;div&gt;&amp;nbsp; var u1 = Math.random();&lt;/div&gt;" style="shape=parallelogram;html=1;strokeWidth=2;perimeter=parallelogramPerimeter;whiteSpace=wrap;rounded=1;arcSize=12;size=0.23;" vertex="1" parent="1">
                    <mxGeometry x="370" y="245" width="126" height="70" as="geometry"/>
                </mxCell>
                <mxCell id="72" value="" style="edgeStyle=none;rounded=0;html=1;elbow=vertical;" edge="1" parent="1" source="64" target="65">
                    <mxGeometry relative="1" as="geometry"/>
                </mxCell>
                <mxCell id="64" value="&lt;div&gt;var u2 = Math.random();&lt;/div&gt;" style="shape=parallelogram;html=1;strokeWidth=2;perimeter=parallelogramPerimeter;whiteSpace=wrap;rounded=1;arcSize=12;size=0.23;" vertex="1" parent="1">
                    <mxGeometry x="380" y="140" width="126" height="70" as="geometry"/>
                </mxCell>
                <mxCell id="73" value="" style="edgeStyle=none;rounded=0;html=1;elbow=vertical;" edge="1" parent="1" source="65" target="66">
                    <mxGeometry relative="1" as="geometry"/>
                </mxCell>
                <mxCell id="65" value="&lt;div&gt;&amp;nbsp; var z0 = Math.sqrt(-2.0 * Math.log(u1)) * Math.cos(_2PI * u2);&lt;/div&gt;" style="rounded=1;whiteSpace=wrap;html=1;absoluteArcSize=1;arcSize=14;strokeWidth=2;" vertex="1" parent="1">
                    <mxGeometry x="570" y="140" width="160" height="70" as="geometry"/>
                </mxCell>
                <mxCell id="74" value="" style="edgeStyle=none;rounded=0;html=1;elbow=vertical;" edge="1" parent="1" source="66" target="15">
                    <mxGeometry relative="1" as="geometry"/>
                </mxCell>
                <mxCell id="66" value="&lt;div&gt;&amp;nbsp; var z1 = Math.sqrt(-2.0 * Math.log(u1)) * Math.sin(_2PI * u2);&lt;/div&gt;" style="rounded=1;whiteSpace=wrap;html=1;absoluteArcSize=1;arcSize=14;strokeWidth=2;" vertex="1" parent="1">
                    <mxGeometry x="570" y="255" width="160" height="70" as="geometry"/>
                </mxCell>
            </root>
        </mxGraphModel>
    </diagram>
</mxfile>